<svg xmlns="http://www.w3.org/2000/svg" viewBox="0 0 460 100" width="100%" height="100%">
  <defs>
    <!-- Smooth gradient for orange elements to add a premium touch -->
    <linearGradient id="orangeGrad" x1="0%" y1="100%" x2="100%" y2="0%">
      <stop offset="0%" stop-color="#E27413" />
      <stop offset="100%" stop-color="#F68B2D" />
    </linearGradient>
  </defs>

  <g id="logo-mark">
    <!-- Stylized 'A' - Top Triangle (Blue) -->
    <path d="M 45,18 L 65,42 L 28,54 Z" fill="#125e98" />
    
    <!-- Stylized 'A' - Bottom Wedge (Blue) -->
    <path d="M 18,85 L 38,85 L 28,66 Z" fill="#125e98" />
    
    <!-- Dynamic Orange Swoop/Arch -->
    <path d="M 15,82 C 60,35 110,18 180,36 C 120,28 70,45 35,82 Z" fill="url(#orangeGrad)" />
  </g>

  <g id="logo-text">
    <!-- Letter 'd' (Blue) -->
    <path d="M 115,15 L 123,15 L 123,85 L 115,85 L 115,77 C 110,82 103,85 95,85 C 81,85 70,74 70,60 C 70,46 81,35 95,35 C 103,35 110,38 115,43 L 115,15 Z M 96,75 C 104,75 111,69 111,60 C 111,51 104,45 96,45 C 88,45 81,51 81,60 C 81,69 88,75 96,75 Z" fill="#125e98" />
    
    <!-- Letter 's' (Blue) -->
    <path d="M 133,74 L 141,74 C 141,77 144,79 149,79 C 154,79 157,76 157,73 C 157,69 153,67 145,65 C 137,63 131,59 131,51 C 131,41 141,33 151,33 C 161,33 169,40 170,49 L 162,49 C 161,45 157,41 151,41 C 146,41 140,43 140,48 C 140,52 143,54 151,56 C 160,58 167,62 167,70 C 167,79 159,86 149,86 C 138,86 133,80 133,74 Z" fill="#125e98" />
    
    <!-- Letter 'b' (Orange) -->
    <path d="M 172,15 L 180,15 L 180,52 C 185,47 191,44 198,44 C 209,44 218,53 218,65 C 218,76 209,85 198,85 C 191,85 185,82 180,77 L 180,85 L 172,85 Z M 197,75 C 205,75 210,69 210,60 C 210,51 205,45 197,45 C 189,45 183,51 183,60 C 183,69 189,75 197,75 Z" fill="url(#orangeGrad)" />
    
    <!-- Letter 'u' (Orange) -->
    <path d="M 226,45 L 234,45 L 234,72 C 234,75 236,78 242,78 C 248,78 250,75 250,72 L 250,45 L 258,45 L 258,72 C 258,80 251,85 242,85 C 233,85 226,80 226,72 Z" fill="url(#orangeGrad)" />
    
    <!-- Letter 'z' (Orange) -->
    <path d="M 266,45 L 296,45 L 296,53 L 277,77 L 296,77 L 296,85 L 266,85 L 266,77 L 285,53 L 266,53 Z" fill="url(#orangeGrad)" />
    
    <!-- Letter 'z' (Orange) -->
    <path d="M 302,45 L 332,45 L 332,53 L 313,77 L 332,77 L 332,85 L 302,85 L 302,77 L 321,53 L 302,53 Z" fill="url(#orangeGrad)" />
    
    <!-- "ERP" Text - bold sans-serif font matching existing style -->
    <text x="350" y="85" font-family="Arial, Helvetica, sans-serif" font-weight="bold" font-size="44" fill="#125e98" letter-spacing="1">ERP</text>
  </g>
</svg>
